<svg width="24" height="24" viewBox="0 0 24 24" fill="none" xmlns="http://www.w3.org/2000/svg">
    <g id="Group 2087330987">
        <path id="Vector 168" d="M4.6001 7.20001V6.60001C4.6001 6.04772 5.04781 5.60001 5.6001 5.60001L18.4001 5.60001C18.9524 5.60001 19.4001 6.04772 19.4001 6.60001V7.20001" stroke="#161F6A" stroke-width="1.5" stroke-linecap="square"/>
        <path id="Vector 171" d="M7.2428 2.2V1.8C7.2428 1.24772 7.69051 0.800003 8.2428 0.800003H15.7574C16.3097 0.800003 16.7574 1.24772 16.7574 1.8V2.2" stroke="#161F6A" stroke-width="1.5" stroke-linecap="square"/>
        <path id="Rectangle 12225893" d="M1.59995 12.9902C1.20264 11.7036 2.16442 10.4 3.5109 10.4H20.4892C21.8357 10.4 22.7975 11.7036 22.4002 12.9902L19.6825 21.7902C19.4237 22.6283 18.6488 23.2 17.7716 23.2H6.22854C5.3513 23.2 4.57645 22.6283 4.31759 21.7902L1.59995 12.9902Z" stroke="#161F6A" stroke-width="1.5"/>
    </g>
</svg>
