<svg xmlns="http://www.w3.org/2000/svg" width="28" height="28" viewBox="0 0 28 28" fill="none">
    <path d="M24.7374 12.8859C24.9424 12.6758 25.0872 12.4101 25.1556 12.1188C25.224 11.8275 25.2133 11.522 25.1246 11.2367C25.0359 10.9514 24.8728 10.6976 24.6535 10.5037C24.4343 10.3098 24.1676 10.1836 23.8835 10.1391L18.4124 9.30825C18.2883 9.28986 18.1704 9.24023 18.0687 9.16364C17.9671 9.08705 17.8848 8.98579 17.829 8.8686L15.3833 3.6937C15.2551 3.42523 15.0577 3.19937 14.8134 3.0415C14.5691 2.88363 14.2874 2.8 14 2.8C13.7127 2.8 13.431 2.88363 13.1867 3.0415C12.9424 3.19937 12.745 3.42523 12.6168 3.6937L10.1672 8.8686C10.1118 8.98528 10.0301 9.08621 9.9292 9.16278C9.82827 9.23934 9.71109 9.28925 9.58767 9.30825L4.11662 10.1391C3.83246 10.1836 3.5658 10.3098 3.34656 10.5037C3.12733 10.6976 2.96421 10.9514 2.87552 11.2367C2.78683 11.522 2.77608 11.8275 2.84448 12.1188C2.91288 12.4101 3.05772 12.6758 3.26273 12.8859L7.22306 16.9193C7.30976 17.0116 7.37397 17.1242 7.41028 17.2477C7.44658 17.3713 7.45393 17.5021 7.4317 17.6292L6.50827 23.3164C6.4603 23.6127 6.49255 23.9171 6.60139 24.1953C6.71023 24.4735 6.89133 24.7144 7.12429 24.8909C7.35725 25.0675 7.6328 25.1726 7.9199 25.1944C8.207 25.2162 8.49424 25.1539 8.74924 25.0145L13.6407 22.3282C13.7516 22.2674 13.8749 22.2357 14 22.2357C14.1252 22.2357 14.2485 22.2674 14.3594 22.3282L19.2509 25.0145C19.4736 25.1368 19.7217 25.2005 19.9734 25.2C20.1978 25.1992 20.4194 25.1474 20.6227 25.0482C20.826 24.949 21.0062 24.8047 21.1507 24.6255C21.2952 24.4462 21.4005 24.2362 21.4595 24.0102C21.5184 23.7841 21.5294 23.5474 21.4918 23.3164L20.5684 17.6292C20.547 17.5005 20.5558 17.3683 20.5942 17.2439C20.6326 17.1196 20.6993 17.0068 20.7886 16.9153L24.7374 12.8859Z" stroke="#161F6A" stroke-width="1.5" stroke-linecap="round" stroke-linejoin="round"/>
</svg>