<svg xmlns="http://www.w3.org/2000/svg" width="16" height="16" viewBox="0 0 16 16" fill="none">
    <path d="M5.78663 6.90662H3.54664C2.92664 6.90662 2.42664 6.40662 2.42664 5.78662V3.54663C2.42664 2.92663 2.92664 2.42664 3.54664 2.42664H5.78663C6.40663 2.42664 6.90664 2.92663 6.90664 3.54663V5.78662C6.90664 6.40662 6.40663 6.90662 5.78663 6.90662Z" stroke="#161F6A" stroke-width="1.5" stroke-linecap="round" stroke-linejoin="round"/>
    <path d="M12.4534 6.90662H10.2134C9.59339 6.90662 9.09338 6.40662 9.09338 5.78662V3.54663C9.09338 2.92663 9.59339 2.42664 10.2134 2.42664H12.4534C13.0734 2.42664 13.5734 2.92663 13.5734 3.54663V5.78662C13.5734 6.40662 13.0734 6.90662 12.4534 6.90662Z" stroke="#161F6A" stroke-width="1.5" stroke-linecap="round" stroke-linejoin="round"/>
    <path d="M5.78663 13.5733H3.54664C2.92664 13.5733 2.42664 13.0733 2.42664 12.4533V10.2133C2.42664 9.59332 2.92664 9.09332 3.54664 9.09332H5.78663C6.40663 9.09332 6.90664 9.59332 6.90664 10.2133V12.4533C6.90664 13.0733 6.40663 13.5733 5.78663 13.5733Z" stroke="#161F6A" stroke-width="1.5" stroke-linecap="round" stroke-linejoin="round"/>
    <path d="M12.4534 13.5733H10.2134C9.59339 13.5733 9.09338 13.0733 9.09338 12.4533V10.2133C9.09338 9.59332 9.59339 9.09332 10.2134 9.09332H12.4534C13.0734 9.09332 13.5734 9.59332 13.5734 10.2133V12.4533C13.5734 13.0733 13.0734 13.5733 12.4534 13.5733Z" stroke="#161F6A" stroke-width="1.5" stroke-linecap="round" stroke-linejoin="round"/>
</svg>