<svg xmlns="http://www.w3.org/2000/svg" width="36" height="36" viewBox="0 0 36 36" fill="none">
    <path d="M0 8.22645C0 3.68317 3.68317 0 8.22645 0H27.7733C32.3168 0 36 3.68317 36 8.22645V27.7733C36 32.3168 32.3168 36 27.7733 36H8.22645C3.68317 36 0 32.3168 0 27.7733V8.22645Z" fill="black"/>
    <path d="M9.5625 26.4375C9.5625 24.1076 11.4513 22.2188 13.7813 22.2188H17.9998V26.4375C17.9998 28.7675 16.1112 30.6563 13.7813 30.6563C11.4513 30.6563 9.5625 28.7675 9.5625 26.4375Z" fill="#24CB71"/>
    <path d="M18 5.34375V13.7811H22.2188C24.5487 13.7811 26.4376 11.8925 26.4376 9.56253C26.4376 7.23257 24.5487 5.34375 22.2188 5.34375H18Z" fill="#FF7237"/>
    <path d="M22.1836 22.2187C24.5135 22.2187 26.4023 20.3299 26.4023 18C26.4023 15.67 24.5135 13.7812 22.1836 13.7812C19.8536 13.7812 17.9648 15.67 17.9648 18C17.9648 20.3299 19.8536 22.2187 22.1836 22.2187Z" fill="#00B6FF"/>
    <path d="M9.5625 9.56253C9.5625 11.8925 11.4513 13.7813 13.7813 13.7813H17.9998V5.34375H13.7813C11.4513 5.34375 9.5625 7.23257 9.5625 9.56253Z" fill="#FF3737"/>
    <path d="M9.5625 17.9998C9.5625 20.3298 11.4513 22.2186 13.7813 22.2186H17.9998V13.7812H13.7813C11.4513 13.7812 9.5625 15.6699 9.5625 17.9998Z" fill="#874FFF"/>
</svg>