<svg xmlns="http://www.w3.org/2000/svg" width="28" height="36" viewBox="0 0 28 36" fill="none">
    <g clip-path="url(#clip0_23362_7990)">
        <mask id="mask0_23362_7990" style="mask-type:luminance" maskUnits="userSpaceOnUse" x="1" y="0" width="27" height="36">
            <path d="M17.3596 0.514938H3.50375C2.15891 0.514938 1.05859 1.58789 1.05859 2.89927V33.1008C1.05859 34.4121 2.15891 35.4851 3.50375 35.4851H24.6951C26.0399 35.4851 27.1402 34.4121 27.1402 33.1008V10.0523L17.3596 0.514938Z" fill="white"/>
        </mask>
        <g mask="url(#mask0_23362_7990)">
            <path d="M17.3596 0.514938H3.50375C2.15891 0.514938 1.05859 1.58789 1.05859 2.89927V33.1008C1.05859 34.4121 2.15891 35.4851 3.50375 35.4851H24.6951C26.0399 35.4851 27.1402 34.4121 27.1402 33.1008V10.0523L21.4349 6.07837L17.3596 0.514938Z" fill="#0F9D58"/>
        </g>
        <mask id="mask1_23362_7990" style="mask-type:luminance" maskUnits="userSpaceOnUse" x="1" y="0" width="27" height="36">
            <path d="M17.3596 0.514938H3.50375C2.15891 0.514938 1.05859 1.58789 1.05859 2.89927V33.1008C1.05859 34.4121 2.15891 35.4851 3.50375 35.4851H24.6951C26.0399 35.4851 27.1402 34.4121 27.1402 33.1008V10.0523L17.3596 0.514938Z" fill="white"/>
        </mask>
        <g mask="url(#mask1_23362_7990)">
            <path d="M7.5791 17.6026V29.1269H20.6199V17.6026H7.5791ZM13.2845 27.5373H9.2092V25.5504H13.2845V27.5373ZM13.2845 24.3582H9.2092V22.3713H13.2845V24.3582ZM13.2845 21.1791H9.2092V19.1922H13.2845V21.1791ZM18.9898 27.5373H14.9146V25.5504H18.9898V27.5373ZM18.9898 24.3582H14.9146V22.3713H18.9898V24.3582ZM18.9898 21.1791H14.9146V19.1922H18.9898V21.1791Z" fill="#F1F1F1"/>
        </g>
        <mask id="mask2_23362_7990" style="mask-type:luminance" maskUnits="userSpaceOnUse" x="1" y="0" width="27" height="36">
            <path d="M17.3596 0.514938H3.50375C2.15891 0.514938 1.05859 1.58789 1.05859 2.89927V33.1008C1.05859 34.4121 2.15891 35.4851 3.50375 35.4851H24.6951C26.0399 35.4851 27.1402 34.4121 27.1402 33.1008V10.0523L17.3596 0.514938Z" fill="white"/>
        </mask>
        <g mask="url(#mask2_23362_7990)">
            <path d="M18.0752 9.35484L27.1406 18.1928V10.0523L18.0752 9.35484Z" fill="url(#paint0_linear_23362_7990)"/>
        </g>
        <mask id="mask3_23362_7990" style="mask-type:luminance" maskUnits="userSpaceOnUse" x="1" y="0" width="27" height="36">
            <path d="M17.3596 0.514938H3.50375C2.15891 0.514938 1.05859 1.58789 1.05859 2.89927V33.1008C1.05859 34.4121 2.15891 35.4851 3.50375 35.4851H24.6951C26.0399 35.4851 27.1402 34.4121 27.1402 33.1008V10.0523L17.3596 0.514938Z" fill="white"/>
        </mask>
        <g mask="url(#mask3_23362_7990)">
            <path d="M17.3594 0.514938V7.66792C17.3594 8.98527 18.4536 10.0523 19.8045 10.0523H27.14L17.3594 0.514938Z" fill="#87CEAC"/>
        </g>
        <mask id="mask4_23362_7990" style="mask-type:luminance" maskUnits="userSpaceOnUse" x="1" y="0" width="27" height="36">
            <path d="M17.3596 0.514938H3.50375C2.15891 0.514938 1.05859 1.58789 1.05859 2.89927V33.1008C1.05859 34.4121 2.15891 35.4851 3.50375 35.4851H24.6951C26.0399 35.4851 27.1402 34.4121 27.1402 33.1008V10.0523L17.3596 0.514938Z" fill="white"/>
        </mask>
        <g mask="url(#mask4_23362_7990)">
            <path d="M3.50375 0.514938C2.15891 0.514938 1.05859 1.58789 1.05859 2.89927V3.09796C1.05859 1.78658 2.15891 0.713632 3.50375 0.713632H17.3596V0.514938H3.50375Z" fill="white" fill-opacity="0.2"/>
        </g>
        <mask id="mask5_23362_7990" style="mask-type:luminance" maskUnits="userSpaceOnUse" x="1" y="0" width="27" height="36">
            <path d="M17.3596 0.514938H3.50375C2.15891 0.514938 1.05859 1.58789 1.05859 2.89927V33.1008C1.05859 34.4121 2.15891 35.4851 3.50375 35.4851H24.6951C26.0399 35.4851 27.1402 34.4121 27.1402 33.1008V10.0523L17.3596 0.514938Z" fill="white"/>
        </mask>
        <g mask="url(#mask5_23362_7990)">
            <path d="M24.6951 35.2864H3.50375C2.15891 35.2864 1.05859 34.2134 1.05859 32.9021V33.1008C1.05859 34.4121 2.15891 35.4851 3.50375 35.4851H24.6951C26.0399 35.4851 27.1402 34.4121 27.1402 33.1008V32.9021C27.1402 34.2134 26.0399 35.2864 24.6951 35.2864Z" fill="#263238" fill-opacity="0.2"/>
        </g>
        <mask id="mask6_23362_7990" style="mask-type:luminance" maskUnits="userSpaceOnUse" x="1" y="0" width="27" height="36">
            <path d="M17.3596 0.514938H3.50375C2.15891 0.514938 1.05859 1.58789 1.05859 2.89927V33.1008C1.05859 34.4121 2.15891 35.4851 3.50375 35.4851H24.6951C26.0399 35.4851 27.1402 34.4121 27.1402 33.1008V10.0523L17.3596 0.514938Z" fill="white"/>
        </mask>
        <g mask="url(#mask6_23362_7990)">
            <path d="M19.8045 10.0523C18.4536 10.0523 17.3594 8.98526 17.3594 7.66792V7.86662C17.3594 9.18396 18.4536 10.2509 19.8045 10.2509H27.14V10.0523H19.8045Z" fill="#263238" fill-opacity="0.1"/>
        </g>
        <path d="M17.3596 0.514938H3.50375C2.15891 0.514938 1.05859 1.58789 1.05859 2.89927V33.1008C1.05859 34.4121 2.15891 35.4851 3.50375 35.4851H24.6951C26.0399 35.4851 27.1402 34.4121 27.1402 33.1008V10.0523L17.3596 0.514938Z" fill="url(#paint1_radial_23362_7990)"/>
    </g>
    <defs>
        <linearGradient id="paint0_linear_23362_7990" x1="471.394" y1="85.2381" x2="471.394" y2="893.269" gradientUnits="userSpaceOnUse">
            <stop stop-color="#263238" stop-opacity="0.2"/>
            <stop offset="1" stop-color="#263238" stop-opacity="0.02"/>
        </linearGradient>
        <radialGradient id="paint1_radial_23362_7990" cx="0" cy="0" r="1" gradientUnits="userSpaceOnUse" gradientTransform="translate(83.6865 69.6313) scale(4205.62 4101.01)">
            <stop stop-color="white" stop-opacity="0.1"/>
            <stop offset="1" stop-color="white" stop-opacity="0"/>
        </radialGradient>
        <clipPath id="clip0_23362_7990">
            <rect width="27" height="36" fill="white" transform="translate(0.599609)"/>
        </clipPath>
    </defs>
</svg>