<svg xmlns="http://www.w3.org/2000/svg" width="28" height="36" viewBox="0 0 28 36" fill="none">
    <mask id="mask0_23362_3222" style="mask-type:luminance" maskUnits="userSpaceOnUse" x="0" y="0" width="28" height="36">
        <path d="M17.375 0H3.03125C1.63906 0 0.5 1.10455 0.5 2.45455V33.5455C0.5 34.8955 1.63906 36 3.03125 36H24.9688C26.3609 36 27.5 34.8955 27.5 33.5455V9.81818L17.375 0Z" fill="white"/>
    </mask>
    <g mask="url(#mask0_23362_3222)">
        <path d="M17.375 0H3.03125C1.63906 0 0.5 1.10455 0.5 2.45455V33.5455C0.5 34.8955 1.63906 36 3.03125 36H24.9688C26.3609 36 27.5 34.8955 27.5 33.5455V9.81818L21.5938 5.72727L17.375 0Z" fill="#4285F4"/>
    </g>
    <mask id="mask1_23362_3222" style="mask-type:luminance" maskUnits="userSpaceOnUse" x="0" y="0" width="28" height="36">
        <path d="M17.375 0H3.03125C1.63906 0 0.5 1.10455 0.5 2.45455V33.5455C0.5 34.8955 1.63906 36 3.03125 36H24.9688C26.3609 36 27.5 34.8955 27.5 33.5455V9.81818L17.375 0Z" fill="white"/>
    </mask>
    <g mask="url(#mask1_23362_3222)">
        <path d="M18.1152 9.10025L27.4998 18.1984V9.8182L18.1152 9.10025Z" fill="url(#paint0_linear_23362_3222)"/>
    </g>
    <mask id="mask2_23362_3222" style="mask-type:luminance" maskUnits="userSpaceOnUse" x="0" y="0" width="28" height="36">
        <path d="M17.375 0H3.03125C1.63906 0 0.5 1.10455 0.5 2.45455V33.5455C0.5 34.8955 1.63906 36 3.03125 36H24.9688C26.3609 36 27.5 34.8955 27.5 33.5455V9.81818L17.375 0Z" fill="white"/>
    </mask>
    <g mask="url(#mask2_23362_3222)">
        <path d="M7.25 26.1818H20.75V24.5455H7.25V26.1818ZM7.25 29.4545H17.375V27.8182H7.25V29.4545ZM7.25 18V19.6364H20.75V18H7.25ZM7.25 22.9091H20.75V21.2727H7.25V22.9091Z" fill="#F1F1F1"/>
    </g>
    <mask id="mask3_23362_3222" style="mask-type:luminance" maskUnits="userSpaceOnUse" x="0" y="0" width="28" height="36">
        <path d="M17.375 0H3.03125C1.63906 0 0.5 1.10455 0.5 2.45455V33.5455C0.5 34.8955 1.63906 36 3.03125 36H24.9688C26.3609 36 27.5 34.8955 27.5 33.5455V9.81818L17.375 0Z" fill="white"/>
    </mask>
    <g mask="url(#mask3_23362_3222)">
        <path d="M17.375 0V7.36364C17.375 8.71977 18.5077 9.81818 19.9062 9.81818H27.5L17.375 0Z" fill="#A1C2FA"/>
    </g>
    <mask id="mask4_23362_3222" style="mask-type:luminance" maskUnits="userSpaceOnUse" x="0" y="0" width="28" height="36">
        <path d="M17.375 0H3.03125C1.63906 0 0.5 1.10455 0.5 2.45455V33.5455C0.5 34.8955 1.63906 36 3.03125 36H24.9688C26.3609 36 27.5 34.8955 27.5 33.5455V9.81818L17.375 0Z" fill="white"/>
    </mask>
    <g mask="url(#mask4_23362_3222)">
        <path d="M3.03125 0C1.63906 0 0.5 1.10455 0.5 2.45455V2.65909C0.5 1.30909 1.63906 0.204545 3.03125 0.204545H17.375V0H3.03125Z" fill="white" fill-opacity="0.2"/>
    </g>
    <mask id="mask5_23362_3222" style="mask-type:luminance" maskUnits="userSpaceOnUse" x="0" y="0" width="28" height="36">
        <path d="M17.375 0H3.03125C1.63906 0 0.5 1.10455 0.5 2.45455V33.5455C0.5 34.8955 1.63906 36 3.03125 36H24.9688C26.3609 36 27.5 34.8955 27.5 33.5455V9.81818L17.375 0Z" fill="white"/>
    </mask>
    <g mask="url(#mask5_23362_3222)">
        <path d="M24.9688 35.7956H3.03125C1.63906 35.7956 0.5 34.691 0.5 33.341V33.5456C0.5 34.8956 1.63906 36.0001 3.03125 36.0001H24.9688C26.3609 36.0001 27.5 34.8956 27.5 33.5456V33.341C27.5 34.691 26.3609 35.7956 24.9688 35.7956Z" fill="#1A237E" fill-opacity="0.2"/>
    </g>
    <mask id="mask6_23362_3222" style="mask-type:luminance" maskUnits="userSpaceOnUse" x="0" y="0" width="28" height="36">
        <path d="M17.375 0H3.03125C1.63906 0 0.5 1.10455 0.5 2.45455V33.5455C0.5 34.8955 1.63906 36 3.03125 36H24.9688C26.3609 36 27.5 34.8955 27.5 33.5455V9.81818L17.375 0Z" fill="white"/>
    </mask>
    <g mask="url(#mask6_23362_3222)">
        <path d="M19.9062 9.81813C18.5077 9.81813 17.375 8.71972 17.375 7.36359V7.56813C17.375 8.92427 18.5077 10.0227 19.9062 10.0227H27.5V9.81813H19.9062Z" fill="#1A237E" fill-opacity="0.1"/>
    </g>
    <path d="M17.375 0H3.03125C1.63906 0 0.5 1.10455 0.5 2.45455V33.5455C0.5 34.8955 1.63906 36 3.03125 36H24.9688C26.3609 36 27.5 34.8955 27.5 33.5455V9.81818L17.375 0Z" fill="url(#paint1_radial_23362_3222)"/>
    <defs>
        <linearGradient id="paint0_linear_23362_3222" x1="487.396" y1="87.2182" x2="487.396" y2="919.045" gradientUnits="userSpaceOnUse">
            <stop stop-color="#1A237E" stop-opacity="0.2"/>
            <stop offset="1" stop-color="#1A237E" stop-opacity="0.02"/>
        </linearGradient>
        <radialGradient id="paint1_radial_23362_3222" cx="0" cy="0" r="1" gradientUnits="userSpaceOnUse" gradientTransform="translate(86.0373 70.7413) scale(4353.71 4197.42)">
            <stop stop-color="white" stop-opacity="0.1"/>
            <stop offset="1" stop-color="white" stop-opacity="0"/>
        </radialGradient>
    </defs>
</svg>