<svg xmlns="http://www.w3.org/2000/svg" width="17" height="16" viewBox="0 0 17 16" fill="none">
    <path d="M15.98 8.16602C15.98 7.64602 15.9304 7.14602 15.8383 6.66602H8.5V9.50602H12.6933C12.5092 10.4193 11.9567 11.1927 11.1279 11.7127V13.5594H13.6567C15.13 12.2793 15.98 10.3993 15.98 8.16602Z" fill="#4285F4"/>
    <path d="M8.49978 15.3327C10.6035 15.3327 12.3673 14.6794 13.6564 13.5594L11.1277 11.7127C10.4335 12.1527 9.54811 12.4194 8.49978 12.4194C6.47395 12.4194 4.7527 11.1327 4.13645 9.39938H1.54395V11.2927C2.82603 13.686 5.45394 15.3327 8.49978 15.3327Z" fill="#34A853"/>
    <path d="M4.13634 9.39289C3.98051 8.95289 3.88842 8.48622 3.88842 7.99956C3.88842 7.51289 3.98051 7.04622 4.13634 6.60622V4.71289H1.54384C1.01259 5.69956 0.708008 6.81289 0.708008 7.99956C0.708008 9.18622 1.01259 10.2996 1.54384 11.2862L3.56259 9.80622L4.13634 9.39289Z" fill="#FBBC05"/>
    <path d="M8.49978 3.58602C9.64728 3.58602 10.6673 3.95935 11.4819 4.67935L13.7131 2.57935C12.3602 1.39268 10.6035 0.666016 8.49978 0.666016C5.45394 0.666016 2.82603 2.31268 1.54395 4.71268L4.13645 6.60602C4.7527 4.87268 6.47394 3.58602 8.49978 3.58602Z" fill="#EA4335"/>
</svg>