<svg width="121" height="24" viewBox="0 0 121 24" fill="none" xmlns="http://www.w3.org/2000/svg">
<g>
<g id="Vector">
<path d="M0 0.258878H11.5331C11.5331 1.38337 11.5331 2.49493 11.5331 3.6065C10.2358 3.6065 8.93846 3.6065 7.62818 3.6065V23.6793H3.91787C3.91787 16.9841 3.91787 10.3147 3.91787 3.61943C2.62056 3.61943 1.32326 3.61943 0.0129731 3.61943C-1.29163e-08 2.50786 0 1.38337 0 0.258878Z" fill="#2856F6"/>
<path d="M31.1095 0.258878H34.8068C34.8068 6.95412 34.8068 13.6235 34.8068 20.3058C36.8565 20.3188 38.9063 20.3058 40.956 20.3058C40.956 21.4303 40.956 22.5548 40.956 23.6535H31.1224L31.1095 0.258878Z" fill="#2856F6"/>
<path d="M44.8999 0.271797C46.1453 0.258872 47.3907 0.271797 48.6361 0.258871C48.6361 3.63234 48.6361 7.03167 48.6361 10.4181C50.2967 7.04459 51.9183 3.63234 53.5659 0.258871C54.7854 0.258871 56.0178 0.245946 57.2502 0.271797C55.5508 3.68404 53.8643 7.09629 52.1648 10.5215C52.0221 10.7024 52.1648 10.9221 52.2297 11.1031C53.9162 15.2909 55.5767 19.4915 57.2632 23.6793C55.9789 23.6922 54.6945 23.6922 53.3843 23.6793C52.1907 20.5773 51.0102 17.4881 49.7777 14.399C49.4275 15.1358 48.9864 15.8208 48.6491 16.5575C48.5972 18.9358 48.6491 21.314 48.6361 23.6922C47.3907 23.6922 46.1453 23.7052 44.8999 23.6793C44.9518 21.6113 44.8739 19.5303 44.8999 17.4494C44.8999 15.446 44.8999 13.4426 44.8999 11.4392C44.9647 10.5085 44.8869 9.565 44.8999 8.63439V4.62758C44.8999 4.35615 44.8999 4.09765 44.8999 3.82622V1.17656C44.8869 0.866355 44.8869 0.569076 44.8999 0.271797Z" fill="#2856F6"/>
<path d="M61.0384 0.258878H64.7227C64.7227 6.21739 64.7227 12.163 64.7227 18.1215C64.7487 18.729 64.7617 19.3752 65.099 19.9052C65.3325 20.2412 65.7087 20.3963 66.059 20.5643C66.6687 20.6031 67.3303 20.6548 67.8363 20.2671C68.5368 19.8018 68.5758 18.8841 68.5758 18.1344C68.5758 12.1759 68.5758 6.23031 68.5758 0.271803C69.7563 0.271803 70.9239 0.271803 72.1044 0.271803V14.916C72.1044 16.1181 72.1044 17.3201 72.1044 18.5222C72.1044 19.8922 71.7282 21.3398 70.7942 22.4126C69.8471 23.5113 68.3293 24.0024 66.8893 23.9895C65.4752 24.0541 63.9963 23.8344 62.8676 22.9296C61.5962 21.9086 61.0254 20.2412 61.0124 18.6643C61.0124 14.2956 61.0124 9.92692 61.0124 5.5582C61.0384 3.80038 61.0384 2.04255 61.0384 0.258878Z" fill="#2856F6"/>
<path d="M76.8785 0.258871C78.4353 0.258871 80.005 0.245946 81.5618 0.271797C82.7943 4.93779 84.1045 9.565 85.337 14.231C85.3759 9.57793 85.337 4.92486 85.35 0.271797C86.4656 0.271797 87.5684 0.258871 88.6711 0.284722C88.6711 8.07861 88.6711 15.8854 88.6711 23.6793C87.3867 23.6922 86.1154 23.6793 84.8181 23.6922C83.3521 18.4058 81.9251 13.1194 80.4721 7.82011C80.3813 7.48405 80.3164 7.13507 80.2775 6.78609C80.2386 7.13507 80.2126 7.49697 80.2126 7.84595C80.2126 10.8834 80.2126 13.8949 80.2126 16.9324C80.2126 19.1943 80.2126 21.4303 80.2126 23.6922C79.0969 23.7052 77.9683 23.6922 76.8656 23.7052L76.8785 0.258871Z" fill="#2856F6"/>
<path d="M108.144 0.271797C109.402 0.258872 110.66 0.271797 111.919 0.271797C112.671 5.32554 113.411 10.3793 114.189 15.433C114.332 16.7126 114.604 17.9793 114.708 19.2718C115.214 16.4024 115.577 13.5201 116.031 10.6378C116.537 7.17384 117.056 3.73575 117.575 0.271797C118.717 0.271797 119.858 0.271797 121 0.271797C120.624 3.16704 120.092 6.03643 119.703 8.94459L119.664 9.02215C118.95 13.9079 118.12 18.7936 117.406 23.6922C115.538 23.7181 113.683 23.6922 111.802 23.7052C110.57 15.8725 109.363 8.07861 108.144 0.271797Z" fill="#2856F6"/>
<path d="M19.5504 0.0908471C21.224 -0.128881 23.1051 0.000370698 24.4932 1.03439C25.8424 2.05547 26.4651 3.78745 26.4651 5.42895C26.4651 9.70718 26.4651 13.9725 26.4651 18.2378C26.491 19.5174 26.2056 20.8487 25.4532 21.9086C24.6878 23.033 23.4035 23.6922 22.0802 23.8732C20.8348 24.0154 19.5375 24.0024 18.3439 23.563C17.3191 23.2011 16.4758 22.4773 15.9439 21.5466C15.4509 20.616 15.1785 19.582 15.1655 18.5222V5.44187C15.2045 4.08473 15.5807 2.66296 16.5018 1.62894C17.2931 0.762957 18.3958 0.245949 19.5504 0.0908471ZM19.5375 3.8133C18.9537 4.30446 18.9277 5.13167 18.9148 5.84255C18.9148 9.84936 18.9148 13.8562 18.9148 17.85C18.9277 18.5222 18.9018 19.233 19.265 19.8405C19.9656 20.8228 21.6651 20.8487 22.3916 19.8793C22.7937 19.2977 22.7288 18.548 22.7807 17.863C22.7807 13.9337 22.7807 10.0174 22.7807 6.10106C22.7288 5.41602 22.7937 4.66636 22.3916 4.08473C22.1451 3.7099 21.717 3.5548 21.3148 3.38677C20.705 3.34799 20.0175 3.37384 19.5375 3.8133Z" fill="#2856F6"/>
<path d="M94.4052 1.79698C95.2095 0.762969 96.4938 0.207186 97.7782 0.0650093C99.4777 -0.103018 101.359 0.0520839 102.708 1.20243C103.992 2.26229 104.459 3.96842 104.524 5.57114C104.524 9.84937 104.524 14.1147 104.524 18.4058C104.485 19.6984 104.187 21.0555 103.37 22.0895C102.734 22.9426 101.761 23.4725 100.749 23.7698C98.9587 24.1188 96.922 24.0929 95.3652 23.0589C93.8733 22.0895 93.2506 20.2541 93.1987 18.548C93.1987 14.2698 93.1987 9.99155 93.1987 5.71331C93.2117 4.33032 93.536 2.89562 94.4052 1.79698ZM98.4398 3.39971C97.9468 3.49018 97.4668 3.76161 97.2203 4.21399C96.922 4.7827 96.922 5.45481 96.922 6.08814C96.922 10.0562 96.922 14.0113 96.922 17.9793C96.922 18.6385 96.9479 19.3235 97.3111 19.8922C97.9468 20.7065 99.2312 20.7841 100.061 20.2283C100.684 19.7888 100.788 18.9487 100.788 18.2378C100.801 14.1922 100.788 10.1467 100.788 6.10107C100.788 5.39018 100.788 4.61467 100.373 4.03304C99.9577 3.42556 99.1274 3.2963 98.4398 3.39971Z" fill="#2856F6"/>
</g>
</g>
</svg>
