<svg xmlns="http://www.w3.org/2000/svg" width="21" height="22" viewBox="0 0 21 22" fill="none">
    <path d="M13.1153 17.8809C12.2746 18.0988 11.4029 18.2026 10.4999 18.2026C7.10619 18.2026 4.06532 16.6147 1.98964 14.1032C0.536658 12.3492 0.536658 9.64045 1.98964 7.89687C2.15569 7.6893 2.3425 7.49211 2.52931 7.29492" stroke="#ABB1C4" stroke-width="1.5" stroke-linecap="round" stroke-linejoin="round"/>
    <path d="M19.0103 14.1031C18.18 15.0995 17.1941 15.9505 16.1043 16.6147L4.88525 5.38526C6.53542 4.36817 8.44505 3.79736 10.5 3.79736C13.8937 3.79736 16.9346 5.38527 19.0103 7.89684C20.4633 9.64042 20.4633 12.3596 19.0103 14.1031Z" stroke="#ABB1C4" stroke-width="1.5" stroke-linecap="round" stroke-linejoin="round"/>
    <path d="M13.6964 10.9998C13.6964 11.8819 13.3331 12.6811 12.7623 13.2623L8.2373 8.73728C8.80812 8.15609 9.61763 7.80322 10.4998 7.80322C12.2745 7.80322 13.6964 9.22507 13.6964 10.9998Z" stroke="#ABB1C4" stroke-width="1.5" stroke-linecap="round" stroke-linejoin="round"/>
    <path d="M0.899902 1.3999L4.88521 5.38521L8.23744 8.73744L12.7624 13.2624L16.1147 16.6147L20.1 20.6" stroke="#ABB1C4" stroke-width="1.5" stroke-linecap="round" stroke-linejoin="round"/>
</svg>