<svg xmlns="http://www.w3.org/2000/svg" width="16" height="16" viewBox="0 0 16 16" fill="none">
    <path d="M3.77148 5.25715V5.25715C3.77148 4.7522 4.18082 4.34286 4.68577 4.34286L11.3143 4.34286C11.8193 4.34286 12.2286 4.7522 12.2286 5.25715V5.25715" stroke="white" stroke-width="1.5" stroke-linecap="round"/>
    <path d="M5.28125 2.40001V2.40001C5.28125 1.95818 5.63942 1.60001 6.08125 1.60001H9.91817C10.36 1.60001 10.7182 1.95818 10.7182 2.40001V2.40001" stroke="white" stroke-width="1.5" stroke-linecap="round"/>
    <path d="M2.39951 9.67587C2.0022 8.38935 2.96398 7.08572 4.31046 7.08572H11.6888C13.0352 7.08572 13.997 8.38935 13.5997 9.67587L12.5762 12.9902C12.3173 13.8283 11.5425 14.4 10.6652 14.4H5.33399C4.45674 14.4 3.68189 13.8283 3.42304 12.9902L2.39951 9.67587Z" fill="white"/>
</svg>
