<svg xmlns="http://www.w3.org/2000/svg" width="114" height="30" viewBox="0 0 114 30" fill="none">
    <g opacity="0.6">
        <path d="M5.32213 28.8816H0.959351V1.11844H14.7219V28.8816H10.2798V5.0846H5.32213V28.8816Z" fill="#ADBCDC"/>
        <path d="M24.3104 1.11844C26.5051 1.11844 28.1312 1.70014 29.1888 2.86355C30.2729 4.02696 30.815 5.73241 30.815 7.9799V11.5891C30.815 13.8366 30.2729 15.5421 29.1888 16.7055C28.1312 17.8689 26.5051 18.4506 24.3104 18.4506H22.248V28.8816H17.8853V1.11844H24.3104ZM22.248 5.0846V14.4844H24.3104C24.9979 14.4844 25.5267 14.2993 25.8969 13.9291C26.2671 13.559 26.4522 12.8715 26.4522 11.8667V7.70227C26.4522 6.69751 26.2671 6.01004 25.8969 5.63987C25.5267 5.26969 24.9979 5.0846 24.3104 5.0846H22.248Z" fill="#ADBCDC"/>
        <path d="M36.7633 22.4961C36.7633 23.5008 36.9616 24.2147 37.3582 24.6378C37.7812 25.0344 38.3365 25.2327 39.024 25.2327C39.7114 25.2327 40.2535 25.0344 40.6501 24.6378C41.0732 24.2147 41.2847 23.5008 41.2847 22.4961V7.50396C41.2847 6.4992 41.0732 5.79851 40.6501 5.4019C40.2535 4.97884 39.7114 4.76731 39.024 4.76731C38.3365 4.76731 37.7812 4.97884 37.3582 5.4019C36.9616 5.79851 36.7633 6.4992 36.7633 7.50396V22.4961ZM32.4005 7.7816C32.4005 5.5341 32.969 3.81543 34.1059 2.62558C35.2429 1.40929 36.8823 0.801147 39.024 0.801147C41.1657 0.801147 42.8051 1.40929 43.942 2.62558C45.079 3.81543 45.6475 5.5341 45.6475 7.7816V22.2184C45.6475 24.4659 45.079 26.1978 43.942 27.4141C42.8051 28.604 41.1657 29.1989 39.024 29.1989C36.8823 29.1989 35.2429 28.604 34.1059 27.4141C32.969 26.1978 32.4005 24.4659 32.4005 22.2184V7.7816Z" fill="#ADBCDC"/>
        <path d="M52.7689 12.8186H58.7578V16.7848H52.7689V24.9154H60.3046V28.8816H48.4061V1.11844H60.3046V5.0846H52.7689V12.8186Z" fill="#ADBCDC"/>
        <path d="M68.6032 17.816L67.2547 20.3543V28.8816H62.8919V1.11844H67.2547V13.2152L73.0453 1.11844H77.3288L71.2605 13.4929L77.3288 28.8816H72.847L68.6032 17.816Z" fill="#ADBCDC"/>
        <path d="M78.1245 1.11844H91.6094V5.0846H87.0483V28.8816H82.6856V5.0846H78.1245V1.11844Z" fill="#ADBCDC"/>
        <path d="M100.032 24.9154C100.719 24.9154 101.248 24.7303 101.618 24.3602C101.988 23.99 102.173 23.3025 102.173 22.2978V18.1333C102.173 17.1285 101.988 16.4411 101.618 16.0709C101.248 15.7007 100.719 15.5156 100.032 15.5156H97.9692V24.9154H100.032ZM93.6064 28.8816V1.11844H97.9692V11.5495H100.032C102.226 11.5495 103.852 12.1312 104.91 13.2946C105.994 14.458 106.536 16.1634 106.536 18.4109V22.0201C106.536 24.2676 105.994 25.9731 104.91 27.1365C103.852 28.2999 102.226 28.8816 100.032 28.8816H93.6064ZM108.678 1.11844H113.041V28.8816H108.678V1.11844Z" fill="#ADBCDC"/>
    </g>
</svg>
