<svg xmlns="http://www.w3.org/2000/svg" width="28" height="28" viewBox="0 0 28 28" fill="none">
    <path d="M24.7371 12.8859C24.9421 12.6758 25.087 12.4101 25.1554 12.1188C25.2238 11.8275 25.213 11.522 25.1243 11.2367C25.0356 10.9514 24.8725 10.6976 24.6533 10.5037C24.4341 10.3098 24.1674 10.1836 23.8832 10.1391L18.4122 9.30825C18.2881 9.28987 18.1701 9.24024 18.0685 9.16364C17.9668 9.08705 17.8846 8.98579 17.8288 8.86861L15.383 3.69371C15.2548 3.42523 15.0575 3.19937 14.8132 3.0415C14.5688 2.88363 14.2872 2.8 13.9998 2.8C13.7125 2.8 13.4308 2.88363 13.1864 3.0415C12.9421 3.19937 12.7448 3.42523 12.6166 3.69371L10.167 8.86861C10.1116 8.98529 10.0299 9.08622 9.92896 9.16278C9.82803 9.23934 9.71085 9.28925 9.58742 9.30825L4.11637 10.1391C3.83222 10.1836 3.56555 10.3098 3.34632 10.5037C3.12709 10.6976 2.96397 10.9514 2.87528 11.2367C2.78658 11.522 2.77584 11.8275 2.84424 12.1188C2.91263 12.4101 3.05747 12.6758 3.26249 12.8859L7.22282 16.9194C7.30952 17.0116 7.37372 17.1242 7.41003 17.2477C7.44634 17.3713 7.45369 17.5021 7.43146 17.6292L6.50803 23.3164C6.46005 23.6127 6.4923 23.9171 6.60114 24.1953C6.70998 24.4735 6.89108 24.7144 7.12404 24.8909C7.357 25.0675 7.63256 25.1726 7.91966 25.1944C8.20676 25.2162 8.49399 25.1539 8.74899 25.0145L13.6405 22.3282C13.7513 22.2674 13.8746 22.2357 13.9998 22.2357C14.125 22.2357 14.2483 22.2674 14.3591 22.3282L19.2506 25.0145C19.4734 25.1368 19.7214 25.2005 19.9731 25.2C20.1976 25.1992 20.4191 25.1474 20.6224 25.0482C20.8257 24.949 21.0059 24.8047 21.1504 24.6255C21.2949 24.4462 21.4003 24.2362 21.4592 24.0102C21.5181 23.7841 21.5292 23.5474 21.4916 23.3164L20.5682 17.6292C20.5467 17.5005 20.5556 17.3683 20.594 17.2439C20.6323 17.1196 20.699 17.0068 20.7884 16.9153L24.7371 12.8859Z" fill="#EDF0F6"/>
</svg>