<svg xmlns="http://www.w3.org/2000/svg" width="24" height="24" viewBox="0 0 24 24" fill="none">
    <path d="M21.2038 11.0451C21.3795 10.8649 21.5037 10.6372 21.5623 10.3875C21.6209 10.1378 21.6117 9.876 21.5357 9.63146C21.4597 9.38691 21.3199 9.16934 21.132 9.00316C20.944 8.83697 20.7155 8.72877 20.4719 8.69068L15.7824 7.97849C15.6761 7.96274 15.5749 7.9202 15.4878 7.85454C15.4007 7.78889 15.3302 7.7021 15.2824 7.60166L13.186 3.16603C13.0761 2.9359 12.907 2.74231 12.6976 2.60699C12.4881 2.47168 12.2467 2.39999 12.0004 2.39999C11.7541 2.39999 11.5127 2.47168 11.3032 2.60699C11.0938 2.74231 10.9246 2.9359 10.8148 3.16603L8.71511 7.60166C8.6676 7.70167 8.5976 7.78818 8.51109 7.8538C8.42458 7.91943 8.32414 7.96221 8.21835 7.97849L3.52888 8.69068C3.28532 8.72877 3.05675 8.83697 2.86883 9.00316C2.68092 9.16934 2.5411 9.38691 2.46508 9.63146C2.38906 9.876 2.37985 10.1378 2.43847 10.3875C2.4971 10.6372 2.62125 10.8649 2.79698 11.0451L6.19154 14.5023C6.26586 14.5813 6.32089 14.6779 6.35201 14.7838C6.38314 14.8897 6.38943 15.0018 6.37038 15.1108L5.57887 19.9855C5.53774 20.2394 5.56539 20.5004 5.65868 20.7388C5.75197 20.9773 5.9072 21.1838 6.10688 21.3351C6.30656 21.4864 6.54275 21.5765 6.78884 21.5952C7.03492 21.6139 7.28112 21.5605 7.49969 21.441L11.6924 19.1384C11.7874 19.0864 11.8931 19.0591 12.0004 19.0591C12.1077 19.0591 12.2134 19.0864 12.3084 19.1384L16.5011 21.441C16.692 21.5458 16.9046 21.6004 17.1204 21.6C17.3128 21.5993 17.5027 21.5549 17.6769 21.4699C17.8512 21.3848 18.0056 21.2612 18.1295 21.1075C18.2534 20.9539 18.3437 20.7739 18.3942 20.5801C18.4447 20.3864 18.4541 20.1834 18.4219 19.9855L17.6304 15.1108C17.612 15.0004 17.6196 14.8871 17.6525 14.7805C17.6854 14.6739 17.7426 14.5773 17.8192 14.4988L21.2038 11.0451Z" stroke="#6E7185" stroke-width="1.5" stroke-linecap="round" stroke-linejoin="round"/>
</svg>