<svg xmlns="http://www.w3.org/2000/svg" width="20" height="20" viewBox="0 0 20 20" fill="none">
    <path d="M17.6695 9.20422C17.816 9.05411 17.9194 8.86436 17.9683 8.65628C18.0171 8.44819 18.0094 8.23 17.9461 8.02622C17.8827 7.82243 17.7662 7.64112 17.6096 7.50263C17.453 7.36415 17.2626 7.27398 17.0596 7.24224L13.1517 6.64875C13.063 6.63562 12.9788 6.60017 12.9062 6.54546C12.8336 6.49075 12.7748 6.41842 12.735 6.33472L10.988 2.63836C10.8965 2.44659 10.7555 2.28526 10.581 2.1725C10.4064 2.05974 10.2053 2 10 2C9.79475 2 9.59356 2.05974 9.41903 2.1725C9.2445 2.28526 9.10354 2.44659 9.01199 2.63836L7.26227 6.33472C7.22268 6.41806 7.16434 6.49015 7.09225 6.54484C7.02016 6.59953 6.93646 6.63518 6.8483 6.64875L2.94041 7.24224C2.73744 7.27398 2.54696 7.36415 2.39037 7.50263C2.23377 7.64112 2.11726 7.82243 2.05391 8.02622C1.99056 8.23 1.98288 8.44819 2.03174 8.65628C2.08059 8.86436 2.18405 9.05411 2.33049 9.20422L5.15929 12.0852C5.22122 12.1511 5.26708 12.2316 5.29302 12.3198C5.31895 12.4081 5.3242 12.5015 5.30832 12.5923L4.64873 16.6546C4.61446 16.8662 4.6375 17.0836 4.71524 17.2823C4.79298 17.4811 4.92234 17.6531 5.08874 17.7792C5.25514 17.9053 5.45197 17.9804 5.65704 17.996C5.86211 18.0116 6.06728 17.9671 6.24942 17.8675L9.74334 15.9487C9.8225 15.9053 9.91058 15.8826 10 15.8826C10.0894 15.8826 10.1775 15.9053 10.2567 15.9487L13.7506 17.8675C13.9097 17.9549 14.0869 18.0004 14.2667 18C14.427 17.9994 14.5852 17.9624 14.7305 17.8916C14.8757 17.8207 15.0044 17.7177 15.1076 17.5896C15.2108 17.4616 15.2861 17.3116 15.3281 17.1501C15.3702 16.9886 15.3781 16.8195 15.3513 16.6546L14.6917 12.5923C14.6764 12.5004 14.6827 12.4059 14.7101 12.3171C14.7375 12.2283 14.7852 12.1477 14.849 12.0824L17.6695 9.20422Z" fill="#FFCC00"/>
</svg>
