<svg xmlns="http://www.w3.org/2000/svg" width="24" height="24" viewBox="0 0 24 24" fill="none">
    <path fill-rule="evenodd" clip-rule="evenodd" d="M4.66397 11.0381C9.22643 9.06858 12.2637 7.7599 13.7889 7.12499C18.1298 5.32393 19.0422 5.01296 19.6289 5C19.7592 5 20.046 5.02591 20.2415 5.1814C20.398 5.31097 20.4371 5.47942 20.4631 5.60899C20.4892 5.73856 20.5153 6.01067 20.4892 6.21798C20.2546 8.67986 19.2378 14.6532 18.7164 17.4001C18.4948 18.5663 18.0646 18.955 17.6474 18.9938C16.7349 19.0716 16.0441 18.3978 15.1707 17.8277C13.7889 16.9336 13.0198 16.3765 11.6771 15.4954C10.1259 14.4847 11.1296 13.9276 12.0161 13.0205C12.2507 12.7873 16.2526 9.15928 16.3308 8.83535C16.3439 8.79648 16.3439 8.64099 16.2526 8.56325C16.1614 8.4855 16.031 8.51142 15.9267 8.53733C15.7833 8.56325 13.5934 10.0145 9.33072 12.878C8.70501 13.3056 8.14448 13.5129 7.63609 13.5C7.07556 13.487 6.00664 13.189 5.19843 12.9298C4.22076 12.6189 3.43862 12.4504 3.5038 11.9062C3.54291 11.6212 3.93397 11.3361 4.66397 11.0381Z" fill="#161F6A"/>
</svg>