<svg xmlns="http://www.w3.org/2000/svg" width="24" height="24" viewBox="0 0 24 24" fill="none">
    <path fill-rule="evenodd" clip-rule="evenodd" d="M20.8982 4.67855L17.8745 19.5234C17.8033 19.8739 17.4006 20.0327 17.1165 19.822L12.9888 16.7633C12.7382 16.5776 12.3965 16.5875 12.1566 16.7871L9.86811 18.6911C9.60255 18.9128 9.20231 18.7893 9.10061 18.4554L7.51154 13.2393L3.40604 11.6754C2.989 11.516 2.98544 10.915 3.40129 10.7516L20.2503 4.11734C20.6075 3.97636 20.976 4.29573 20.8982 4.67855ZM8.84646 12.4061L16.8701 7.3623C17.0142 7.27195 17.1627 7.47095 17.0387 7.58815L10.4169 13.8706C10.1841 14.0917 10.0341 14.3878 9.99146 14.709L9.766 16.4151C9.73597 16.6429 9.42261 16.6654 9.3609 16.445L8.4934 13.3338C8.39419 12.9789 8.53893 12.5998 8.84646 12.4061Z" fill="#161F6A"/>
</svg>