<svg xmlns="http://www.w3.org/2000/svg" width="20" height="20" viewBox="0 0 20 20" fill="none">
    <path fill-rule="evenodd" clip-rule="evenodd" d="M2.66397 9.03809C7.22643 7.06858 10.2637 5.7599 11.7889 5.12499C16.1298 3.32393 17.0422 3.01296 17.6289 3C17.7592 3 18.046 3.02591 18.2415 3.1814C18.398 3.31097 18.4371 3.47942 18.4631 3.60899C18.4892 3.73856 18.5153 4.01067 18.4892 4.21798C18.2546 6.67986 17.2378 12.6532 16.7164 15.4001C16.4948 16.5663 16.0646 16.955 15.6474 16.9938C14.7349 17.0716 14.0441 16.3978 13.1707 15.8277C11.7889 14.9336 11.0198 14.3765 9.67713 13.4954C8.12589 12.4847 9.12963 11.9276 10.0161 11.0205C10.2507 10.7873 14.2526 7.15928 14.3308 6.83535C14.3439 6.79648 14.3439 6.64099 14.2526 6.56325C14.1614 6.4855 14.031 6.51142 13.9267 6.53733C13.7833 6.56325 11.5934 8.01446 7.33072 10.878C6.70501 11.3056 6.14448 11.5129 5.63609 11.5C5.07556 11.487 4.00664 11.189 3.19843 10.9298C2.22076 10.6189 1.43862 10.4504 1.5038 9.90622C1.54291 9.62116 1.93397 9.3361 2.66397 9.03809Z" fill="#161F6A"/>
</svg>