<svg width="130" height="34" viewBox="0 0 130 34" fill="none" xmlns="http://www.w3.org/2000/svg">
<g id="Logo">
<g id="Group">
<path id="Vector" d="M49.8771 1.36722L38.7351 30.4673H44.7207L47.0335 24.3896H58.8589L61.1593 30.4673H67.0995L56.0016 1.36722H49.8771ZM49.0644 19.0475L52.9599 8.80896L56.8348 19.0475H49.0631H49.0644Z" fill="black"/>
<path id="Vector_2" d="M119.035 9.65469C113.187 9.65469 108.444 14.3972 108.444 20.2453C108.444 26.0934 113.187 30.8359 119.035 30.8359C124.883 30.8359 129.625 26.048 129.625 20.2453C129.625 14.4426 124.883 9.65469 119.035 9.65469ZM119.035 25.4017C116.18 25.4017 113.878 23.0999 113.878 20.2453C113.878 17.3907 116.18 15.0889 119.035 15.0889C121.889 15.0889 124.191 17.3907 124.191 20.2453C124.191 23.0999 121.889 25.4017 119.035 25.4017Z" fill="black"/>
<path id="Vector_3" d="M74.2351 22.9617L69.4005 10.0239H63.6913L71.4727 30.4681H77.1351L84.779 10.0239H79.0698L74.2351 22.9617Z" fill="black"/>
<path id="Vector_4" d="M102.734 4.58972H97.3016V10.0225H94.1252V14.9026H97.3016V23.6052C97.3016 28.532 100.019 30.6496 103.84 30.6496C105.314 30.6496 106.557 30.3732 107.616 29.9126V24.8483C107.616 24.8483 106.695 25.2168 105.59 25.2168C103.933 25.2168 102.736 24.5719 102.736 22.3622V14.9026H107.616V10.0225H102.736V4.58972H102.734Z" fill="black"/>
<path id="Vector_5" d="M89.2438 8.55087C91.4309 8.55087 93.2039 6.77786 93.2039 4.59074C93.2039 2.40363 91.4309 0.630615 89.2438 0.630615C87.0567 0.630615 85.2837 2.40363 85.2837 4.59074C85.2837 6.77786 87.0567 8.55087 89.2438 8.55087Z" fill="black"/>
<path id="Vector_6" d="M91.9598 10.0239H86.527V30.4681H91.9598V10.0239Z" fill="black"/>
</g>
<g id="Group_2">
<path id="Vector_7" d="M10.9654 33.3693C16.8144 33.3693 21.556 28.6277 21.556 22.7787C21.556 16.9297 16.8144 12.1881 10.9654 12.1881C5.11633 12.1881 0.374756 16.9297 0.374756 22.7787C0.374756 28.6277 5.11633 33.3693 10.9654 33.3693Z" fill="#04E061"/>
<path id="Vector_8" d="M29.3356 32.0325C32.8699 32.0325 35.7351 29.1673 35.7351 25.633C35.7351 22.0987 32.8699 19.2336 29.3356 19.2336C25.8013 19.2336 22.9362 22.0987 22.9362 25.633C22.9362 29.1673 25.8013 32.0325 29.3356 32.0325Z" fill="#FF4053"/>
<path id="Vector_9" d="M12.9903 10.8069C15.1774 10.8069 16.9504 9.03388 16.9504 6.84676C16.9504 4.65964 15.1774 2.88663 12.9903 2.88663C10.8032 2.88663 9.03015 4.65964 9.03015 6.84676C9.03015 9.03388 10.8032 10.8069 12.9903 10.8069Z" fill="#965EEB"/>
<path id="Vector_10" d="M26.8498 17.8517C31.6053 17.8517 35.4603 13.9966 35.4603 9.24115C35.4603 4.48568 31.6053 0.630615 26.8498 0.630615C22.0943 0.630615 18.2393 4.48568 18.2393 9.24115C18.2393 13.9966 22.0943 17.8517 26.8498 17.8517Z" fill="#00AAFF"/>
</g>
</g>
</svg>
