<svg width="48" height="48" viewBox="0 0 48 48" fill="none" xmlns="http://www.w3.org/2000/svg">
<g id="Type=Icon">
<path id="Subtract" d="M2.66497 7.75931C0.800049 10.9896 0.800049 15.3265 0.800049 24.0002C0.800049 32.6738 0.800049 37.0107 2.66497 40.241C3.88671 42.3572 5.64394 44.1145 7.76005 45.3363C10.5755 46.962 14.2316 47.1706 20.8674 47.1974V15.406H14.7404C14.72 13.6441 14.72 11.8618 14.72 10.0794H32.816V15.3855H26.6891V47.1989C33.6067 47.1792 37.3624 46.9978 40.24 45.3363C42.3562 44.1145 44.1134 42.3572 45.3351 40.241C47.2 37.0107 47.2 32.6738 47.2 24.0002C47.2 15.3265 47.2 10.9896 45.3351 7.75931C44.1134 5.6431 42.3562 3.88577 40.24 2.66397C37.0099 0.79895 32.6733 0.79895 24 0.79895C15.3268 0.79895 10.9902 0.79895 7.76005 2.66397C5.64394 3.88577 3.88671 5.6431 2.66497 7.75931Z" fill="#2856F6"/>
</g>
</svg>
