<svg xmlns="http://www.w3.org/2000/svg" width="16" height="16" viewBox="0 0 16 16" fill="none">
    <g clip-path="url(#clip0_24638_627)">
        <path d="M0 7.68C0 4.0596 0 2.24942 1.12471 1.12471C2.24942 0 4.0596 0 7.68 0H8.32C11.9404 0 13.7506 0 14.8753 1.12471C16 2.24942 16 4.0596 16 7.68V8.32C16 11.9404 16 13.7506 14.8753 14.8753C13.7506 16 11.9404 16 8.32 16H7.68C4.0596 16 2.24942 16 1.12471 14.8753C0 13.7506 0 11.9404 0 8.32V7.68Z" fill="#0077FF"/>
        <path d="M8.51325 11.5264C4.86659 11.5264 2.78662 9.02641 2.69995 4.86641H4.52662C4.58662 7.91974 5.93325 9.21308 6.99992 9.47974V4.86641H8.71999V7.49974C9.77332 7.38641 10.8799 6.18641 11.2532 4.86641H12.9732C12.6866 6.49308 11.4866 7.69308 10.6332 8.18641C11.4866 8.58641 12.8533 9.63308 13.3733 11.5264H11.4799C11.0732 10.2597 10.06 9.27974 8.71999 9.14641V11.5264H8.51325Z" fill="white"/>
    </g>
    <defs>
        <clipPath id="clip0_24638_627">
            <rect width="16" height="16" fill="white"/>
        </clipPath>
    </defs>
</svg>