<svg width="46" height="42" viewBox="0 0 46 42" fill="none" xmlns="http://www.w3.org/2000/svg">
<g id="Group">
<path id="Vector" d="M14.0648 41.6305C21.4365 41.6305 27.4123 35.6547 27.4123 28.283C27.4123 20.9114 21.4365 14.9355 14.0648 14.9355C6.69318 14.9355 0.717285 20.9114 0.717285 28.283C0.717285 35.6547 6.69318 41.6305 14.0648 41.6305Z" fill="#04E061"/>
<path id="Vector_2" d="M37.2173 39.946C41.6717 39.946 45.2827 36.335 45.2827 31.8806C45.2827 27.4262 41.6717 23.8152 37.2173 23.8152C32.763 23.8152 29.152 27.4262 29.152 31.8806C29.152 36.335 32.763 39.946 37.2173 39.946Z" fill="#FF4053"/>
<path id="Vector_3" d="M16.617 13.1949C19.3735 13.1949 21.608 10.9604 21.608 8.20392C21.608 5.44745 19.3735 3.21289 16.617 3.21289C13.8605 3.21289 11.626 5.44745 11.626 8.20392C11.626 10.9604 13.8605 13.1949 16.617 13.1949Z" fill="#965EEB"/>
<path id="Vector_4" d="M34.0843 22.0735C40.0777 22.0735 44.9363 17.2149 44.9363 11.2215C44.9363 5.22812 40.0777 0.369507 34.0843 0.369507C28.0909 0.369507 23.2323 5.22812 23.2323 11.2215C23.2323 17.2149 28.0909 22.0735 34.0843 22.0735Z" fill="#00AAFF"/>
</g>
</svg>
